<?xml version="1.0" standalone="no"?>
<!DOCTYPE svg PUBLIC "-//W3C//DTD SVG 20010904//EN"
 "http://www.w3.org/TR/2001/REC-SVG-20010904/DTD/svg10.dtd">
<svg version="1.0" xmlns="http://www.w3.org/2000/svg"
 width="343.000000pt" height="152.000000pt" viewBox="0 0 343.000000 152.000000"
 preserveAspectRatio="xMidYMid meet">

<g transform="translate(0.000000,152.000000) scale(0.100000,-0.100000)"
fill="#000000" stroke="none">
<path d="M0 760 l0 -760 1715 0 1715 0 0 760 0 760 -1715 0 -1715 0 0 -760z
m3156 706 c28 -13 63 -39 76 -57 45 -60 51 -100 52 -312 l1 -199 36 -31 c19
-18 48 -41 63 -52 39 -28 39 -70 0 -103 -101 -83 -104 -92 -104 -294 0 -81 -5
-169 -11 -197 -26 -124 -116 -195 -241 -189 l-63 3 0 34 c0 30 7 40 60 81 79
61 85 82 94 305 7 189 10 199 62 266 32 41 35 54 16 66 -7 4 -26 26 -43 47
l-29 39 -5 201 c-6 231 -9 242 -89 299 -54 39 -68 65 -51 97 16 30 108 28 176
-4z m-1376 -106 c28 -28 25 -65 -11 -140 -17 -36 -57 -137 -89 -225 -114 -315
-223 -601 -246 -647 -30 -59 -67 -88 -113 -88 -75 0 -96 33 -190 300 -168 474
-181 508 -260 654 -36 67 -39 98 -11 126 28 28 120 31 170 5 41 -21 57 -46 80
-125 55 -189 184 -589 206 -639 16 -36 28 -51 35 -44 33 33 202 549 224 683 7
49 19 99 25 110 26 48 143 67 180 30z m371 -6 c54 -27 55 -32 44 -219 -13
-211 12 -239 115 -129 87 93 171 202 210 269 18 31 47 65 64 76 34 21 115 26
147 9 42 -23 26 -50 -154 -265 -81 -97 -137 -183 -137 -211 0 -23 143 -242
291 -445 45 -63 83 -123 83 -133 1 -30 -41 -48 -100 -42 -88 8 -103 21 -214
195 -114 179 -165 242 -210 261 -28 12 -34 11 -50 -6 -33 -33 -51 -131 -48
-258 3 -108 2 -116 -21 -139 -41 -44 -157 -59 -198 -26 -18 15 -16 59 4 133
25 90 25 697 0 799 -9 38 -17 76 -17 86 0 60 109 86 191 45z m-1473 -226 c7
-7 12 -27 12 -45 0 -56 -58 -106 -269 -233 -105 -63 -191 -117 -191 -120 0 -3
87 -57 192 -120 106 -63 210 -130 231 -149 35 -31 38 -38 35 -80 -5 -73 -31
-69 -218 35 -162 90 -356 208 -402 243 -35 28 -45 74 -23 107 33 50 554 372
606 374 8 0 20 -5 27 -12z"/>
</g>
</svg>
